<?xml version="1.0" encoding="UTF-8" standalone="no"?>
<svg
   xmlns:dc="http://purl.org/dc/elements/1.1/"
   xmlns:cc="http://creativecommons.org/ns#"
   xmlns:rdf="http://www.w3.org/1999/02/22-rdf-syntax-ns#"
   xmlns:svg="http://www.w3.org/2000/svg"
   xmlns="http://www.w3.org/2000/svg"
   xmlns:sodipodi="http://sodipodi.sourceforge.net/DTD/sodipodi-0.dtd"
   xmlns:inkscape="http://www.inkscape.org/namespaces/inkscape"
   width="100"
   height="100"
   viewBox="0 0 100 100"
   fill="none"
   version="1.1"
   id="svg855"
   sodipodi:docname="picidae-icon.svg"
   inkscape:version="1.0.2 (e86c8708, 2021-01-15)">
  <metadata
     id="metadata861">
    <rdf:RDF>
      <cc:Work
         rdf:about="">
        <dc:format>image/svg+xml</dc:format>
        <dc:type
           rdf:resource="http://purl.org/dc/dcmitype/StillImage" />
        <dc:title></dc:title>
      </cc:Work>
    </rdf:RDF>
  </metadata>
  <defs
     id="defs859" />
  <sodipodi:namedview
     pagecolor="#ffffff"
     bordercolor="#666666"
     borderopacity="1"
     objecttolerance="10"
     gridtolerance="10"
     guidetolerance="10"
     inkscape:pageopacity="0"
     inkscape:pageshadow="2"
     inkscape:window-width="1675"
     inkscape:window-height="1021"
     id="namedview857"
     showgrid="false"
     inkscape:zoom="2.5607477"
     inkscape:cx="107"
     inkscape:cy="50"
     inkscape:window-x="0"
     inkscape:window-y="25"
     inkscape:window-maximized="0"
     inkscape:current-layer="svg855" />
  <path
     d="m 55.085891,45.7887 c 1.462,-0.6553 1.792,-2.6213 1.741,-4.2019 0.222,0.0526 0.45,0.1182 0.686,0.1968 0.42,0.1426 0.845,-0.2215 0.946,-0.8075 0.101,-0.5869 -0.159,-1.1766 -0.581,-1.3169 -2.203,-0.7346 -3.944,-0.5065 -5.17,0.6832 -1.337,1.2954 -1.52,3.2537 -1.527,3.3366 -0.027,0.3211 0.049,0.643 0.207,0.8784 0.051,0.0736 1.028,1.4875 2.561,1.4875 0.351,-2e-4 0.732,-0.0744 1.137,-0.2562 z"
     fill="#ffffff"
     id="path833" />
  <path
     d="m 53.016891,37.7681 c 0.143,0.1587 0.315,0.2351 0.485,0.2351 0.231,0 0.46,-0.1406 0.615,-0.4089 0.013,-0.0208 1.24,-2.0904 4.256,-3.014 0.423,-0.1295 0.69,-0.7122 0.598,-1.3017 -0.094,-0.5891 -0.513,-0.9622 -0.936,-0.8322 -3.611,1.1057 -5.091,3.6887 -5.152,3.7979 -0.265,0.4732 -0.204,1.1515 0.134,1.5238 z"
     fill="#ffffff"
     id="path835" />
  <path
     d="m 59.049891,37.3185 c 0.149,0.3307 0.404,0.5122 0.665,0.5122 0.143,0 0.287,-0.0538 0.417,-0.1669 0.015,-0.0134 1.535,-1.3099 3.654,-0.2755 0.409,0.2003 0.857,-0.0996 1.001,-0.6698 0.143,-0.5693 -0.072,-1.1927 -0.481,-1.3923 -2.821,-1.3763 -4.92,0.4095 -5.008,0.4862 -0.367,0.3209 -0.478,0.995 -0.248,1.5061 z"
     fill="#ffffff"
     id="path837" />
  <path
     d="m 64.006891,39.2269 c -0.433,0.0301 -0.766,0.5433 -0.745,1.1461 0.022,0.6025 0.393,1.0686 0.824,1.0359 0.78,-0.0543 3.1,0.0204 4.471,1.0117 0.115,0.0837 0.239,0.1234 0.361,0.1234 0.283,0 0.557,-0.2148 0.697,-0.5889 0.2,-0.5356 0.05,-1.1951 -0.335,-1.4734 -2.025,-1.465 -5.144,-1.2644 -5.273,-1.2548 z"
     fill="#ffffff"
     id="path839" />
  <path
     d="m 69.169891,45.0814 c -0.183,0.5469 -0.013,1.1966 0.38,1.4518 1.375,0.892 3.522,2.4558 3.988,3.1394 0.154,0.2261 0.362,0.3404 0.569,0.3404 0.195,0 0.389,-0.0996 0.541,-0.3002 0.314,-0.4154 0.327,-1.1067 0.029,-1.5445 -0.84,-1.2311 -3.866,-3.228 -4.464,-3.6161 -0.393,-0.2544 -0.86,-0.0177 -1.043,0.5292 z"
     fill="#ffffff"
     id="path841" />
  <path
     d="m 63.900891,53.5941 c 0.144,0.3582 0.411,0.5598 0.686,0.5598 0.13,0 0.262,-0.0448 0.383,-0.1393 0.378,-0.2946 0.513,-0.9602 0.302,-1.4866 -1.315,-3.2705 -2.899,-4.7163 -2.966,-4.7761 -0.364,-0.3273 -0.85,-0.1813 -1.085,0.3265 -0.235,0.5071 -0.13,1.1833 0.234,1.51 0.013,0.0116 1.321,1.2059 2.446,4.0057 z"
     fill="#ffffff"
     id="path843" />
  <path
     d="m 65.672891,51.0368 c 0.027,0.0129 0.683,0.3325 1.256,1.8597 0.14,0.3734 0.413,0.5876 0.696,0.5876 0.123,0 0.246,-0.0401 0.362,-0.1241 0.385,-0.2791 0.534,-0.9388 0.334,-1.4742 -0.896,-2.3888 -2.083,-2.8984 -2.216,-2.9489 -0.408,-0.1542 -0.822,0.1762 -0.946,0.7421 -0.123,0.5658 0.111,1.1704 0.514,1.3578 z"
     fill="#ffffff"
     id="path845" />
  <path
     d="m 69.263891,48.012 c -0.398,-0.2325 -0.857,0.0281 -1.026,0.5835 -0.168,0.5552 0.019,1.1953 0.418,1.4307 0.015,0.009 1.516,0.9079 2.6,2.6816 0.155,0.2539 0.376,0.3844 0.599,0.3844 0.179,0 0.36,-0.0857 0.508,-0.2606 0.33,-0.3908 0.37,-1.0804 0.089,-1.5398 -1.335,-2.1826 -3.113,-3.236 -3.188,-3.2798 z"
     fill="#ffffff"
     id="path847" />
  <path
     d="m 56.345891,49.5913 c -0.36,-0.3229 -0.832,-0.1782 -1.07,0.3154 -0.238,0.4939 -0.142,1.169 0.208,1.5105 0.006,0.0059 0.633,0.6311 1.227,2.4684 0.13,0.4048 0.417,0.6445 0.716,0.6445 0.108,0 0.217,-0.0314 0.321,-0.0968 0.396,-0.2475 0.572,-0.8943 0.394,-1.4446 -0.79,-2.4462 -1.695,-3.3073 -1.796,-3.3974 z"
     fill="#ffffff"
     id="path849" />
  <path
     d="m 59.534891,48.9787 c -0.397,-0.2248 -0.847,0.0401 -1.014,0.5904 -0.167,0.5508 0.02,1.1889 0.414,1.4286 0.031,0.0188 0.763,0.4785 1.333,1.9202 0.143,0.3618 0.412,0.5662 0.689,0.5662 0.128,0 0.258,-0.0437 0.378,-0.1359 0.38,-0.291 0.518,-0.9553 0.309,-1.4837 -0.839,-2.12 -1.982,-2.814 -2.109,-2.8858 z"
     fill="#ffffff"
     id="path851" />
  <path
     d="m 65.698891,26.0007 c -1.041,0.0134 -1.994,0.2251 -2.825,0.5216 -5.11,-1.4768 -8.4,1.2786 -10.085,3.4068 l -0.044,-1.3383 c -0.014,-0.4383 -0.215,-0.8212 -0.51,-0.9742 -0.294,-0.1514 -0.628,-0.0457 -0.844,0.2736 l -7.214,10.6229 h -9.2424 c -7.5563,0 -15.385,2.6229 -20.9422,7.0169 -0.3234,0.2557 -0.4735,0.7926 -0.3595,1.2855 0.1145,0.4926 0.4619,0.8047 0.8314,0.7508 0.2604,-0.0391 26.1417,-3.7981 33.1467,5.8582 0.176,0.292 2.682,4.6998 1.712,16.1078 0.351,-0.0249 0.703,-0.0325 1.054,-0.0347 0.301,-0.0031 0.602,0.0118 0.902,0.0382 -0.017,-0.87 -0.041,-1.7398 -0.077,-2.6092 -0.023,-0.5139 -0.047,-1.0278 -0.072,-1.5415 -0.007,0.0217 -0.012,0.0344 -0.02,0.0569 0.002,-0.1291 0.002,-0.2528 0.003,-0.3798 -0.014,-0.2855 -0.027,-0.5711 -0.044,-0.8564 h 0.047 c -0.053,-8.7229 -2.253,-12.118 -2.366,-12.2856 -0.004,-0.0049 -0.008,-0.0064 -0.011,-0.0111 -0.003,-0.0046 -0.004,-0.0104 -0.008,-0.0151 -1.155,-1.6006 -2.748,-2.8622 -4.614,-3.8579 3.466,0.5093 5.552,0.9895 5.596,0.9998 0.044,0.0103 0.087,0.0156 0.131,0.0156 0.376,0 0.709,-0.378 0.773,-0.9118 0.072,-0.5951 -0.217,-1.1584 -0.644,-1.2584 -0.094,-0.0221 -9.3805,-2.161 -21.5687,-2.2279 -3.742,-0.1321 -7.2423,0.0469 -9.8234,0.2645 4.8285,-2.6545 10.7541,-4.2191 16.3526,-4.2191 h 9.5795 0.002 c 0.001,0 0.002,-5e-4 0.004,-5e-4 0.051,-5e-4 0.101,-0.0074 0.152,-0.0216 0.023,-0.0067 0.045,-0.0191 0.068,-0.0287 0.008,-0.0033 0.016,-0.0015 0.024,-0.0055 0.028,-0.0129 2.889,-1.3683 3.931,-2.2033 0.376,-0.3008 0.505,-0.969 0.289,-1.4922 -0.216,-0.5235 -0.696,-0.7037 -1.071,-0.4024 -0.118,0.0945 -0.275,0.202 -0.453,0.3159 l 3.802,-5.5982 0.047,1.4314 c 0.001,0.0288 0.006,0.0556 0.009,0.084 0.003,0.0365 0.004,0.0728 0.01,0.1086 0.009,0.0569 0.023,0.1112 0.038,0.1645 0.002,0.0082 0.004,0.0169 0.006,0.0251 0.089,0.2954 0.266,0.5181 0.491,0.6106 0.01,0.0041 0.019,0.0069 0.029,0.0105 0.054,0.0191 0.111,0.0301 0.169,0.0332 0.011,5e-4 0.021,0.0061 0.031,0.0061 0.005,0 0.01,-0.0026 0.016,-0.0026 0.007,-3e-4 0.014,0.002 0.021,0.0015 0.051,-0.0033 0.1,-0.0142 0.148,-0.0301 0.002,-8e-4 0.005,-8e-4 0.006,-0.0016 0.059,-0.0201 0.113,-0.0509 0.165,-0.088 0.016,-0.0108 0.029,-0.0246 0.044,-0.0367 0.037,-0.0304 0.071,-0.0635 0.104,-0.1016 0.015,-0.0178 0.03,-0.0363 0.044,-0.0558 0.034,-0.0469 0.065,-0.0976 0.093,-0.1524 0.006,-0.0114 0.013,-0.0196 0.019,-0.0312 0.026,-0.0554 2.245,-4.6831 6.979,-4.9287 -0.178,0.1483 -0.28,0.2462 -0.289,0.255 -0.354,0.3499 -0.436,1.0318 -0.184,1.5233 0.251,0.4921 0.742,0.6057 1.094,0.256 0.166,-0.164 2.324,-2.2367 5.407,-2.231 1.849,0.0035 4.031,0.7556 6.314,3.1167 -0.746,-0.3263 -1.238,-0.4515 -1.314,-0.4697 -0.424,-0.101 -0.833,0.2983 -0.906,0.8932 -0.073,0.5945 0.215,1.1588 0.642,1.2603 0.063,0.0149 5.689,1.4418 9.091,8.9562 -1.747,-1.1294 -4.206,-2.5715 -6.104,-3.0961 -0.385,-0.1053 -0.774,0.2058 -0.897,0.7298 -0.125,0.5243 0.052,1.0951 0.411,1.3307 0.056,0.0364 5.088,3.4029 7.566,10.1592 -0.83,-0.3716 -1.913,-0.923 -3.057,-1.6888 -0.352,-0.2364 -0.775,-0.0753 -0.992,0.3772 -0.217,0.4514 -0.163,1.0569 0.127,1.4203 0.033,0.0409 2.516,3.1763 3.865,6.6814 -1.006,-1.0007 -2.185,-2.0429 -3.093,-2.4624 -0.331,-0.1519 -0.695,0.017 -0.894,0.4185 -0.198,0.4004 -0.182,0.9349 0.04,1.3111 0.07,0.1196 4.172,7.181 7.329,16.8507 0.509,-0.2442 1.019,-0.4852 1.53,-0.7212 -1.74,-5.383 -3.772,-9.963 -5.307,-13.0918 0.627,0.6507 1.17,1.2602 1.484,1.63 0.247,0.2912 0.598,0.3415 0.882,0.1257 0.285,-0.2152 0.444,-0.6519 0.403,-1.0989 -0.251,-2.7181 -1.54,-5.5239 -2.771,-7.6571 0.971,0.4337 1.614,0.6326 1.664,0.6478 0.054,0.0162 0.108,0.0239 0.162,0.0241 0.002,0 0.004,0.0016 0.006,0.0016 0.005,0 0.01,-0.0041 0.016,-0.0041 0.078,-0.0023 0.154,-0.0223 0.227,-0.0553 0.007,-0.0033 0.015,-0.0015 0.023,-0.0055 0.004,-0.0023 0.008,-0.0065 0.013,-0.0091 0.024,-0.0126 0.046,-0.0298 0.068,-0.0452 0.024,-0.0165 0.048,-0.0308 0.071,-0.0503 0.02,-0.0175 0.037,-0.0395 0.056,-0.0594 0.021,-0.0226 0.044,-0.0431 0.063,-0.0684 0.02,-0.0262 0.037,-0.0571 0.055,-0.0865 0.015,-0.0234 0.031,-0.0449 0.044,-0.0699 0.016,-0.0322 0.029,-0.0681 0.044,-0.1031 0.01,-0.0265 0.023,-0.0516 0.032,-0.0795 0.01,-0.0296 0.016,-0.0616 0.024,-0.0925 0.01,-0.0376 0.02,-0.0748 0.027,-0.1137 10e-4,-0.0056 0.003,-0.0104 0.003,-0.016 0.004,-0.0253 0.004,-0.0502 0.007,-0.0755 0.004,-0.0407 0.009,-0.0807 0.01,-0.1222 0.001,-0.0371 -0.002,-0.0731 -0.004,-0.1096 -10e-4,-0.0343 -0.002,-0.0681 -0.006,-0.1026 -0.005,-0.0433 -0.014,-0.0846 -0.022,-0.1263 -0.005,-0.0226 -0.007,-0.0457 -0.013,-0.0684 -0.002,-0.0079 -0.004,-0.0151 -0.007,-0.0231 -0.001,-0.0064 -0.003,-0.0129 -0.005,-0.0191 -0.959,-3.6866 -2.605,-6.5775 -4.231,-8.7158 1.472,0.9273 2.574,1.7305 2.597,1.7472 0.044,0.0327 0.09,0.0571 0.136,0.077 0.003,0.001 0.005,0.0032 0.008,0.0045 0.066,0.027 0.132,0.0377 0.199,0.0402 0.008,3e-4 0.015,0.0051 0.023,0.0051 0.013,0 0.027,-0.005 0.04,-0.0061 0.027,-0.002 0.054,-0.0051 0.081,-0.011 0.023,-0.0052 0.046,-0.0119 0.069,-0.0202 0.028,-0.01 0.056,-0.0217 0.084,-0.0362 0.011,-0.0061 0.023,-0.0086 0.035,-0.0156 0.01,-0.0059 0.018,-0.0147 0.027,-0.0211 0.027,-0.0172 0.051,-0.0367 0.076,-0.0578 0.02,-0.0175 0.04,-0.0353 0.059,-0.0548 0.021,-0.0219 0.04,-0.046 0.06,-0.071 0.019,-0.0244 0.037,-0.0491 0.054,-0.0759 0.016,-0.025 0.03,-0.0512 0.045,-0.0785 0.017,-0.0321 0.033,-0.065 0.047,-0.0995 0.005,-0.0129 0.012,-0.0231 0.017,-0.0363 0.006,-0.0157 0.009,-0.0323 0.014,-0.0482 0.012,-0.0361 0.023,-0.0728 0.032,-0.1107 0.008,-0.0319 0.015,-0.0633 0.02,-0.0955 0.007,-0.0358 0.011,-0.0716 0.015,-0.1082 0.003,-0.0342 0.006,-0.0678 0.007,-0.1021 0.001,-0.0357 0,-0.0715 -10e-4,-0.1076 -0.002,-0.0355 -0.004,-0.0701 -0.008,-0.1051 -0.004,-0.0337 -0.01,-0.0671 -0.016,-0.1006 -0.007,-0.0378 -0.015,-0.0751 -0.025,-0.1116 -0.004,-0.0168 -0.006,-0.0336 -0.011,-0.0503 -1.423,-4.6116 -3.561,-7.6393 -5.6,-9.6135 -3.788,-6.5736 -7.698,-8.3158 -10.819,-8.2757 z m -16.922,45.2084 c -10e-4,0.0015 -0.002,0.003 -0.002,0.0045 0.088,0.0092 0.176,0.0205 0.265,0.0302 -0.088,-0.0115 -0.176,-0.0236 -0.263,-0.0347 z m 1.259,0.1699 0.011,0.0141 c 0.144,0.028 0.287,0.0552 0.433,0.0875 0.005,-0.0103 0.011,-0.0249 0.016,-0.0352 -0.154,-0.0217 -0.307,-0.044 -0.46,-0.0664 z"
     fill="#ffffff"
     id="path853" />
</svg>
